<svg xmlns="http://www.w3.org/2000/svg" viewBox="0 0 1280 720" role="img" aria-label="Cyber dojo arena background">
  <defs>
    <linearGradient id="sky" x1="0" y1="0" x2="0" y2="1">
      <stop offset="0" stop-color="#09162a"/>
      <stop offset="0.48" stop-color="#102443"/>
      <stop offset="1" stop-color="#07101d"/>
    </linearGradient>
    <radialGradient id="moon" cx="50%" cy="36%" r="34%">
      <stop offset="0" stop-color="#b7fcff" stop-opacity="0.82"/>
      <stop offset="0.42" stop-color="#40dfff" stop-opacity="0.17"/>
      <stop offset="1" stop-color="#40dfff" stop-opacity="0"/>
    </radialGradient>
    <linearGradient id="floor" x1="0" y1="0" x2="1" y2="0">
      <stop offset="0" stop-color="#06101c"/>
      <stop offset="0.5" stop-color="#122947"/>
      <stop offset="1" stop-color="#06101c"/>
    </linearGradient>
    <filter id="softGlow" x="-30%" y="-30%" width="160%" height="160%">
      <feGaussianBlur stdDeviation="8" result="blur"/>
      <feMerge>
        <feMergeNode in="blur"/>
        <feMergeNode in="SourceGraphic"/>
      </feMerge>
    </filter>
  </defs>
  <rect width="1280" height="720" fill="url(#sky)"/>
  <rect width="1280" height="720" fill="url(#moon)"/>
  <g opacity="0.3">
    <path d="M0 156h1280M0 234h1280M0 312h1280M0 390h1280M0 468h1280" stroke="#5feaff" stroke-width="1"/>
    <path d="M120 0v720M275 0v720M430 0v720M640 0v720M850 0v720M1005 0v720M1160 0v720" stroke="#5feaff" stroke-width="1"/>
  </g>
  <g opacity="0.55">
    <path d="M128 512 256 252h768l128 260" fill="#081521" stroke="#24537c" stroke-width="3"/>
    <path d="M260 252 640 114l380 138" fill="#0f2540" stroke="#6ff4ff" stroke-width="4"/>
    <path d="M352 272h576v232H352z" fill="#0b1828" stroke="#284d74" stroke-width="4"/>
    <path d="M398 300h98v184h-98zM784 300h98v184h-98z" fill="#12233a" stroke="#64e6ff" stroke-width="3"/>
    <path d="M548 300h184v184H548z" fill="#07101c" stroke="#ff6f9a" stroke-width="3"/>
  </g>
  <g filter="url(#softGlow)">
    <circle cx="640" cy="214" r="70" fill="none" stroke="#81f8ff" stroke-width="4" opacity="0.78"/>
    <path d="M604 214h72M640 178v72" stroke="#ffdf6e" stroke-width="4" opacity="0.85"/>
    <path d="M356 258h568" stroke="#77f8ff" stroke-width="3" opacity="0.88"/>
    <path d="M440 485h400" stroke="#ff7197" stroke-width="4" opacity="0.62"/>
  </g>
  <g opacity="0.82">
    <path d="M0 610h1280v110H0z" fill="url(#floor)"/>
    <path d="M0 644h1280M0 682h1280" stroke="#1e4569" stroke-width="2"/>
    <path d="M210 720 540 610M740 610l330 110M0 720l392-110M1280 720 888 610" stroke="#2ee8ff" stroke-opacity="0.22" stroke-width="2"/>
  </g>
  <g opacity="0.55" filter="url(#softGlow)">
    <rect x="112" y="116" width="70" height="210" rx="8" fill="#10243d" stroke="#62e8ff" stroke-width="3"/>
    <rect x="1098" y="116" width="70" height="210" rx="8" fill="#10243d" stroke="#ff7197" stroke-width="3"/>
    <path d="M147 154v136M1133 154v136" stroke="#fce87a" stroke-width="5"/>
  </g>
  <g fill="#e8fbff" opacity="0.72">
    <circle cx="217" cy="78" r="2"/>
    <circle cx="326" cy="132" r="2"/>
    <circle cx="982" cy="86" r="2"/>
    <circle cx="1084" cy="178" r="2"/>
    <circle cx="742" cy="74" r="2"/>
  </g>
</svg>
