<svg xmlns="http://www.w3.org/2000/svg" viewBox="0 0 192 192" role="img" aria-label="Volt Kensei character">
  <defs>
    <linearGradient id="armor" x1="0" y1="0" x2="1" y2="1">
      <stop offset="0" stop-color="#4c1d3b"/>
      <stop offset="0.48" stop-color="#1f1f3c"/>
      <stop offset="1" stop-color="#111525"/>
    </linearGradient>
    <filter id="spark" x="-50%" y="-50%" width="200%" height="200%">
      <feGaussianBlur stdDeviation="3" result="blur"/>
      <feMerge>
        <feMergeNode in="blur"/>
        <feMergeNode in="SourceGraphic"/>
      </feMerge>
    </filter>
  </defs>
  <ellipse cx="96" cy="171" rx="43" ry="12" fill="#050b16" opacity="0.38"/>
  <path d="M60 74c5-31 20-48 43-48 21 0 35 17 39 48l-12 28H72z" fill="#1b2545" stroke="#ff7197" stroke-width="5"/>
  <path d="M75 42c20-20 50-13 61 12-17-8-38-6-59 7z" fill="#07101f"/>
  <path d="M73 82h54c18 21 24 53 16 88H50c-8-35-1-67 23-88z" fill="url(#armor)" stroke="#ff7197" stroke-width="4"/>
  <path d="M76 67h48l-8 27H84z" fill="#e7bfa7"/>
  <path d="M84 72h35l-5 10H88z" fill="#0a1424"/>
  <path d="M88 76h9M108 76h9" stroke="#8dffb6" stroke-width="4" stroke-linecap="round" filter="url(#spark)"/>
  <path d="M62 101c-23 8-35 27-35 55h28l28-41z" fill="#1d203b" stroke="#8dffb6" stroke-width="4"/>
  <path d="M130 100c24 8 36 27 35 56h-28l-29-41z" fill="#1d203b" stroke="#ff7197" stroke-width="4"/>
  <path d="M82 96h33l-11 28 20 5-35 37 10-30-21-5z" fill="#8dffb6" filter="url(#spark)"/>
  <path d="M75 168v-35M121 168v-35" stroke="#11162c" stroke-width="16" stroke-linecap="round"/>
  <path d="M65 171h29M108 171h29" stroke="#ff7197" stroke-width="8" stroke-linecap="round"/>
  <path d="M28 132l22-10-12 19 20 5-31 18 11-22zM155 120l24-7-14 18 19 8-34 14 14-20z" fill="#8dffb6" opacity="0.86" filter="url(#spark)"/>
</svg>
